<svg xmlns="http://www.w3.org/2000/svg" width="400" height="300" viewBox="0 0 400 300">
  <rect width="400" height="300" fill="#0a0a0f"/>
  <g transform="translate(100, 40)">
    <rect x="0" y="0" width="40" height="40" rx="4" fill="#06b6d4" stroke="#fff" stroke-width="1"/>
    <rect x="42" y="0" width="40" height="40" rx="4" fill="#06b6d4" stroke="#fff" stroke-width="1"/>
    <rect x="84" y="0" width="40" height="40" rx="4" fill="#ef4444" stroke="#fff" stroke-width="1"/>
    <rect x="126" y="0" width="40" height="40" rx="4" fill="#22c55e" stroke="#fff" stroke-width="1"/>
    <rect x="168" y="0" width="40" height="40" rx="4" fill="#a855f7" stroke="#fff" stroke-width="1"/>
    <rect x="0" y="42" width="40" height="40" rx="4" fill="#06b6d4" stroke="#fff" stroke-width="1"/>
    <rect x="42" y="42" width="40" height="40" rx="4" fill="#f97316" stroke="#fff" stroke-width="1"/>
    <rect x="84" y="42" width="40" height="40" rx="4" fill="#eab308" stroke="#fff" stroke-width="1"/>
    <rect x="126" y="42" width="40" height="40" rx="4" fill="#22c55e" stroke="#fff" stroke-width="1"/>
    <rect x="168" y="42" width="40" height="40" rx="4" fill="#ef4444" stroke="#fff" stroke-width="1"/>
    <rect x="0" y="84" width="40" height="40" rx="4" fill="#3b82f6" stroke="#fff" stroke-width="1"/>
    <rect x="42" y="84" width="40" height="40" rx="4" fill="#eab308" stroke="#fff" stroke-width="1"/>
    <rect x="84" y="84" width="40" height="40" rx="4" fill="#a855f7" stroke="#fff" stroke-width="1"/>
    <rect x="126" y="84" width="40" height="40" rx="4" fill="#f97316" stroke="#fff" stroke-width="1"/>
    <rect x="168" y="84" width="40" height="40" rx="4" fill="#3b82f6" stroke="#fff" stroke-width="1"/>
    <rect x="0" y="126" width="40" height="40" rx="4" fill="#22c55e" stroke="#fff" stroke-width="1"/>
    <rect x="42" y="126" width="40" height="40" rx="4" fill="#ef4444" stroke="#fff" stroke-width="1"/>
    <rect x="84" y="126" width="40" height="40" rx="4" fill="#06b6d4" stroke="#fff" stroke-width="1"/>
    <rect x="126" y="126" width="40" height="40" rx="4" fill="#eab308" stroke="#fff" stroke-width="1"/>
    <rect x="168" y="126" width="40" height="40" rx="4" fill="#a855f7" stroke="#fff" stroke-width="1"/>
  </g>
  <text x="200" y="270" text-anchor="middle" fill="#06b6d4" font-family="sans-serif" font-size="18" font-weight="bold" opacity="0.8">CHROMA FLOOD</text>
</svg>