<svg xmlns="http://www.w3.org/2000/svg" width="400" height="300" viewBox="0 0 400 300">
  <defs>
    <linearGradient id="bg" x1="0" y1="0" x2="0" y2="1">
      <stop offset="0" stop-color="#0a0a1a"/>
      <stop offset="1" stop-color="#0a0a0f"/>
    </linearGradient>
    <linearGradient id="ghost-body" x1="0" y1="0" x2="1" y2="1">
      <stop offset="0" stop-color="#000000"/>
      <stop offset="1" stop-color="#51e2ff"/>
    </linearGradient>
    <linearGradient id="trail" x1="0" y1="0" x2="1" y2="0">
      <stop offset="0" stop-color="#51e2ff" stop-opacity="0"/>
      <stop offset="1" stop-color="#51e2ff" stop-opacity="0.6"/>
    </linearGradient>
  </defs>
  <rect width="400" height="300" fill="url(#bg)"/>
  <circle cx="50" cy="40" r="1" fill="#51e2ff" opacity="0.5"/>
  <circle cx="150" cy="25" r="1.5" fill="#51e2ff" opacity="0.4"/>
  <circle cx="280" cy="50" r="1" fill="#51e2ff" opacity="0.6"/>
  <circle cx="350" cy="80" r="1.2" fill="#51e2ff" opacity="0.3"/>
  <circle cx="100" cy="260" r="1" fill="#51e2ff" opacity="0.4"/>
  <rect x="0" y="270" width="400" height="30" fill="#1a1a2e" stroke="#51e2ff" stroke-width="1" opacity="0.8"/>
  <rect x="0" y="0" width="400" height="30" fill="#1a1a2e" stroke="#51e2ff" stroke-width="1" opacity="0.8"/>
  <rect x="0" y="0" width="15" height="300" fill="#1a1a2e" stroke="#51e2ff" stroke-width="1" opacity="0.8"/>
  <rect x="385" y="0" width="15" height="300" fill="#1a1a2e" stroke="#51e2ff" stroke-width="1" opacity="0.8"/>
  <rect x="80" y="270" width="60" height="8" rx="3" fill="#51e2ff" opacity="0.9"/>
  <line x1="90" y1="265" x2="90" y2="270" stroke="#51e2ff" stroke-width="1.5" opacity="0.6"/>
  <line x1="110" y1="262" x2="110" y2="270" stroke="#51e2ff" stroke-width="1.5" opacity="0.6"/>
  <line x1="130" y1="265" x2="130" y2="270" stroke="#51e2ff" stroke-width="1.5" opacity="0.6"/>
  <rect x="120" y="150" width="80" height="15" fill="#1a1a2e" stroke="#51e2ff" stroke-width="1" opacity="0.6"/>
  <ellipse cx="280" cy="140" rx="20" ry="35" fill="url(#ghost-body)" opacity="0.9"/>
  <circle cx="280" cy="118" r="14" fill="url(#ghost-body)" stroke="#51e2ff" stroke-width="0.5" opacity="0.9"/>
  <ellipse cx="276" cy="116" rx="3.5" ry="5.5" fill="#ffffff"/>
  <ellipse cx="286" cy="116" rx="3.5" ry="5.5" fill="#ffffff"/>
  <ellipse cx="277" cy="116" rx="1.5" ry="2.5" fill="#000000"/>
  <ellipse cx="287" cy="116" rx="1.5" ry="2.5" fill="#000000"/>
  <path d="M260,155 Q270,162 280,158 Q290,162 300,155" fill="none" stroke="#51e2ff" stroke-width="1" opacity="0.7"/>
  <rect x="130" y="140" width="120" height="4" rx="2" fill="url(#trail)" opacity="0.7"/>
  <circle cx="340" cy="200" r="18" fill="none" stroke="#51e2ff" stroke-width="2" opacity="0.8"/>
  <circle cx="340" cy="200" r="12" fill="none" stroke="#51e2ff" stroke-width="1" opacity="0.5"/>
  <circle cx="340" cy="200" r="5" fill="#51e2ff" opacity="0.3"/>
  <polygon points="50,270 58,250 66,270" fill="#ef4444" opacity="0.8"/>
  <polygon points="66,270 74,250 82,270" fill="#ef4444" opacity="0.8"/>
  <text x="200" y="290" text-anchor="middle" font-family="monospace" font-size="10" fill="#51e2ff" opacity="0.6">DRIFT</text>
</svg>
