<svg xmlns="http://www.w3.org/2000/svg" width="400" height="300" viewBox="0 0 400 300">
  <rect width="400" height="300" fill="#0a0a0f"/>
  <circle cx="1" cy="1" r="1" fill="#fff" opacity="0.4" transform="translate(50,30)"/>
  <circle cx="1" cy="1" r="1" fill="#fff" opacity="0.3" transform="translate(120,60)"/>
  <circle cx="1" cy="1" r="1" fill="#fff" opacity="0.5" transform="translate(320,40)"/>
  <circle cx="1" cy="1" r="1" fill="#fff" opacity="0.3" transform="translate(350,120)"/>
  <circle cx="1" cy="1" r="1" fill="#fff" opacity="0.4" transform="translate(60,200)"/>
  <circle cx="200" cy="140" r="25" fill="#fbbf24"/>
  <circle cx="200" cy="140" r="35" fill="none" stroke="#fbbf24" stroke-width="1" opacity="0.3"/>
  <circle cx="200" cy="140" r="45" fill="none" stroke="#fbbf24" stroke-width="0.5" opacity="0.15"/>
  <circle cx="200" cy="140" r="75" fill="none" stroke="#0ea5e9" stroke-width="1" stroke-dasharray="4,4" opacity="0.3"/>
  <circle cx="200" cy="140" r="110" fill="none" stroke="#0ea5e9" stroke-width="1" stroke-dasharray="4,4" opacity="0.25"/>
  <circle cx="275" cy="140" r="8" fill="#3b82f6"/>
  <circle cx="275" cy="140" r="11" fill="none" stroke="#3b82f6" stroke-width="1" opacity="0.5"/>
  <circle cx="145" cy="60" r="6" fill="#ef4444"/>
  <circle cx="145" cy="60" r="9" fill="none" stroke="#ef4444" stroke-width="1" opacity="0.5"/>
  <circle cx="250" cy="230" r="10" fill="#f97316"/>
  <circle cx="250" cy="230" r="13" fill="none" stroke="#f97316" stroke-width="1" opacity="0.5"/>
  <line x1="275" y1="140" x2="290" y2="125" stroke="#ffffff" stroke-width="1.5" opacity="0.6"/>
  <polygon points="290,125 288,131 294,129" fill="#ffffff" opacity="0.6"/>
  <text x="200" y="280" text-anchor="middle" fill="#0ea5e9" font-family="sans-serif" font-size="18" font-weight="bold" opacity="0.8">ORBIT KEEPER</text>
</svg>