<svg xmlns="http://www.w3.org/2000/svg" width="400" height="300" viewBox="0 0 400 300">
  <rect width="400" height="300" fill="#0a0a0f"/>
  <rect x="0" y="30" width="400" height="30" fill="#22c55e" opacity="0.6"/>
  <rect x="0" y="60" width="400" height="50" fill="#8B4513" opacity="0.7"/>
  <rect x="0" y="110" width="400" height="50" fill="#6b3410" opacity="0.7"/>
  <rect x="0" y="160" width="400" height="50" fill="#666666" opacity="0.6"/>
  <rect x="0" y="210" width="400" height="50" fill="#555555" opacity="0.6"/>
  <rect x="120" y="80" width="20" height="20" rx="10" fill="#0a0a0f"/>
  <rect x="140" y="80" width="20" height="20" rx="3" fill="#0a0a0f"/>
  <rect x="140" y="100" width="20" height="20" rx="3" fill="#0a0a0f"/>
  <rect x="140" y="120" width="20" height="20" rx="3" fill="#0a0a0f"/>
  <rect x="160" y="120" width="20" height="20" rx="3" fill="#0a0a0f"/>
  <rect x="180" y="120" width="20" height="20" rx="3" fill="#0a0a0f"/>
  <circle cx="130" cy="90" r="8" fill="#84cc16"/>
  <circle cx="127" cy="88" r="2" fill="#ffffff"/>
  <circle cx="133" cy="88" r="2" fill="#ffffff"/>
  <polygon points="250,180 256,170 262,180" fill="#fbbf24" opacity="0.9"/>
  <polygon points="320,200 326,190 332,200" fill="#22d3ee" opacity="0.8"/>
  <rect x="60" y="170" width="30" height="15" rx="2" fill="#3b82f6" opacity="0.4"/>
  <rect x="300" y="230" width="25" height="12" rx="2" fill="#ef4444" opacity="0.5"/>
  <text x="200" y="280" text-anchor="middle" fill="#84cc16" font-family="sans-serif" font-size="18" font-weight="bold" opacity="0.8">TERRAVORE</text>
</svg>